<?xml version="1.0" encoding="UTF-8"?>
<svg xmlns="http://www.w3.org/2000/svg" xmlns:xlink="http://www.w3.org/1999/xlink" width="1296pt" height="863.999991pt" viewBox="0 0 1296 863.999991" version="1.2">
<g id="surface1">
<path style=" stroke:none;fill-rule:nonzero;fill:rgb(27.059937%,29.40979%,31.759644%);fill-opacity:1;" d="M 465.425781 724 C 453.886719 724 436.539062 724 436.539062 724 C 402.984375 721.933594 413.609375 695.441406 405.515625 678.53125 C 353.550781 569.824219 399.910156 517.933594 434.550781 524.355469 C 454.675781 528.070312 467.464844 550.628906 463.722656 572.574219 C 458.402344 603.550781 449.695312 678.964844 449.695312 678.964844 C 481.03125 678.964844 496.910156 724 465.425781 724 "/>
<path style=" stroke:none;fill-rule:nonzero;fill:rgb(18.429565%,19.219971%,21.569824%);fill-opacity:1;" d="M 481.097656 715.222656 C 481.519531 713.128906 481.070312 711.089844 480.28125 709.222656 C 479.4375 707.375 478.144531 705.6875 476.527344 704.367188 C 473.289062 701.726562 468.554688 700.695312 464.8125 702.679688 C 466.566406 703.835938 468.089844 704.707031 469.453125 705.632812 C 470.824219 706.542969 472.050781 707.441406 473.261719 708.421875 C 474.472656 709.386719 475.667969 710.421875 476.933594 711.5625 C 478.1875 712.695312 479.492188 713.878906 481.097656 715.222656 "/>
<path style=" stroke:none;fill-rule:nonzero;fill:rgb(18.429565%,19.219971%,21.569824%);fill-opacity:1;" d="M 469.820312 723.128906 C 470.621094 721.15625 470.554688 719.0625 470.050781 717.074219 C 469.53125 715.117188 468.472656 713.222656 466.976562 711.714844 C 464.023438 708.652344 459.316406 707.332031 455.492188 709.0625 C 457.164062 710.339844 458.621094 711.304688 459.859375 712.3125 C 461.136719 713.320312 462.238281 714.300781 463.289062 715.359375 C 464.335938 716.421875 465.34375 717.5625 466.375 718.84375 L 469.820312 723.128906 "/>
<path style=" stroke:none;fill-rule:nonzero;fill:rgb(27.059937%,29.40979%,31.759644%);fill-opacity:1;" d="M 258.550781 717.359375 C 247.011719 717.359375 229.652344 717.359375 229.652344 717.359375 C 196.097656 715.292969 206.722656 688.804688 198.640625 671.890625 C 188.464844 650.585938 179.621094 641.660156 176.84375 624.613281 C 175.101562 614 187.730469 607.6875 185.28125 601.660156 C 142.976562 497.144531 210.300781 469.703125 235.609375 471.078125 C 259.421875 472.382812 292.335938 484.519531 299.410156 517.429688 C 307.179688 553.578125 294.214844 586.722656 263.464844 601.007812 C 210.859375 625.457031 242.820312 672.328125 242.820312 672.328125 C 274.15625 672.328125 290.035156 717.359375 258.550781 717.359375 "/>
<path style=" stroke:none;fill-rule:nonzero;fill:rgb(18.429565%,19.219971%,21.569824%);fill-opacity:1;" d="M 273.054688 708.082031 C 273.476562 705.984375 273.027344 703.945312 272.226562 702.082031 C 271.394531 700.230469 270.117188 698.542969 268.484375 697.222656 C 265.246094 694.585938 260.511719 693.550781 256.769531 695.523438 C 258.539062 696.695312 260.046875 697.566406 261.421875 698.488281 C 262.78125 699.386719 264.019531 700.300781 265.21875 701.265625 C 266.429688 702.246094 267.640625 703.277344 268.890625 704.40625 C 270.15625 705.539062 271.464844 706.75 273.054688 708.082031 "/>
<path style=" stroke:none;fill-rule:nonzero;fill:rgb(18.429565%,19.219971%,21.569824%);fill-opacity:1;" d="M 261.789062 715.972656 C 262.59375 714 262.511719 711.917969 262.007812 709.945312 C 261.488281 707.960938 260.441406 706.082031 258.945312 704.570312 C 255.964844 701.511719 251.285156 700.191406 247.460938 701.917969 C 249.121094 703.195312 250.5625 704.164062 251.828125 705.171875 C 253.09375 706.164062 254.183594 707.144531 255.246094 708.203125 C 256.304688 709.265625 257.3125 710.421875 258.347656 711.699219 L 261.789062 715.972656 "/>
<path style=" stroke:none;fill-rule:nonzero;fill:rgb(44.309998%,48.239136%,50.588989%);fill-opacity:1;" d="M 78.496094 505.769531 C 78.496094 473.078125 113.4375 395.515625 186.53125 407.691406 C 219.949219 413.253906 235.105469 429.253906 276.347656 444.179688 C 328.625 463.105469 353.117188 437.867188 353.117188 437.867188 L 476.839844 468.929688 C 488.773438 552.382812 439.882812 643.878906 280.5 643.878906 C 183.46875 643.878906 78.496094 608.125 78.496094 505.769531 "/>
<path style=" stroke:none;fill-rule:nonzero;fill:rgb(44.309998%,48.239136%,50.588989%);fill-opacity:1;" d="M 104.472656 478.003906 C 110.949219 478.003906 117.167969 474.355469 120.117188 468.125 C 124.242188 459.5 120.582031 449.199219 111.980469 445.078125 C 111.382812 444.765625 78.019531 428.167969 86.0625 406.710938 C 87.652344 402.464844 89.816406 397.308594 92.308594 391.308594 C 101.84375 368.492188 114.894531 337.257812 118.363281 305.9375 C 124.105469 254.277344 99.941406 228.480469 78.632812 215.9375 C 70.402344 211.066406 59.761719 213.816406 54.902344 222.058594 C 50.058594 230.304688 52.808594 240.929688 61.039062 245.773438 C 101.394531 269.554688 81.832031 326.46875 60.332031 377.964844 C 57.691406 384.261719 55.433594 389.703125 53.609375 394.535156 C 38.234375 435.554688 75.285156 465.960938 97.042969 476.316406 C 99.4375 477.457031 101.980469 478.003906 104.472656 478.003906 "/>
<path style=" stroke:none;fill-rule:nonzero;fill:rgb(27.059937%,29.40979%,31.759644%);fill-opacity:1;" d="M 112.351562 335.664062 C 112.351562 335.664062 106.390625 342.914062 94.605469 346.058594 C 84.851562 348.65625 73.964844 342.589844 73.964844 342.589844 C 87.613281 302.398438 92.265625 264.167969 61.039062 245.773438 C 52.808594 240.929688 50.058594 230.304688 54.902344 222.058594 C 59.761719 213.816406 70.402344 211.066406 78.632812 215.9375 C 99.941406 228.480469 124.105469 254.277344 118.363281 305.9375 C 116.988281 318.359375 115.941406 323.800781 112.351562 335.664062 "/>
<path style=" stroke:none;fill-rule:nonzero;fill:rgb(68.238831%,70.588684%,71.759033%);fill-opacity:1;" d="M 90.253906 559.539062 C 168.449219 620.136719 266.917969 600.898438 342.570312 582.382812 C 424.007812 562.464844 418.480469 460.75 421.789062 455.105469 L 476.839844 468.929688 C 488.773438 552.382812 439.882812 643.878906 280.5 643.878906 C 202.929688 643.878906 120.269531 621.007812 90.253906 559.539062 "/>
<path style=" stroke:none;fill-rule:nonzero;fill:rgb(44.309998%,48.239136%,50.588989%);fill-opacity:1;" d="M 167.59375 722.558594 C 156.039062 722.558594 138.691406 722.558594 138.691406 722.558594 C 105.136719 720.488281 115.765625 694 107.683594 677.089844 C 97.503906 655.78125 88.660156 646.859375 85.886719 629.808594 C 84.144531 619.199219 96.769531 612.871094 94.335938 606.84375 C 52.019531 502.328125 119.371094 474.902344 144.636719 476.273438 C 168.460938 477.582031 201.375 489.703125 208.453125 522.628906 C 216.222656 558.777344 203.253906 591.917969 172.503906 606.207031 C 119.914062 630.652344 151.875 677.523438 151.875 677.523438 C 183.183594 677.523438 199.078125 722.558594 167.59375 722.558594 "/>
<path style=" stroke:none;fill-rule:nonzero;fill:rgb(18.429565%,19.219971%,21.569824%);fill-opacity:1;" d="M 182.109375 713.292969 C 182.519531 711.183594 182.070312 709.144531 181.28125 707.277344 C 180.449219 705.429688 179.144531 703.726562 177.539062 702.421875 C 174.300781 699.78125 169.550781 698.761719 165.808594 700.734375 C 167.578125 701.890625 169.101562 702.761719 170.449219 703.6875 C 171.835938 704.585938 173.0625 705.496094 174.285156 706.476562 C 175.484375 707.441406 176.667969 708.476562 177.933594 709.605469 C 179.199219 710.734375 180.503906 711.933594 182.109375 713.292969 "/>
<path style=" stroke:none;fill-rule:nonzero;fill:rgb(18.429565%,19.219971%,21.569824%);fill-opacity:1;" d="M 170.832031 721.167969 C 171.632812 719.195312 171.550781 717.101562 171.0625 715.128906 C 170.542969 713.144531 169.484375 711.265625 168 709.753906 C 165.019531 706.707031 160.300781 705.402344 156.488281 707.117188 C 158.175781 708.394531 159.605469 709.359375 160.871094 710.367188 C 162.136719 711.359375 163.238281 712.355469 164.300781 713.414062 C 165.347656 714.460938 166.355469 715.617188 167.386719 716.898438 L 170.832031 721.167969 "/>
<path style=" stroke:none;fill-rule:nonzero;fill:rgb(44.309998%,48.239136%,50.588989%);fill-opacity:1;" d="M 393.390625 755.195312 C 381.851562 755.195312 364.503906 755.195312 364.503906 755.195312 C 330.953125 753.113281 341.5625 726.640625 333.480469 709.714844 C 281.492188 601.007812 327.863281 549.132812 362.503906 555.539062 C 382.628906 559.265625 395.417969 581.8125 391.664062 603.757812 C 386.371094 634.722656 377.675781 710.148438 377.675781 710.148438 C 408.996094 710.148438 424.863281 755.195312 393.390625 755.195312 "/>
<path style=" stroke:none;fill-rule:nonzero;fill:rgb(18.429565%,19.219971%,21.569824%);fill-opacity:1;" d="M 409.066406 746.421875 C 409.488281 744.3125 409.023438 742.273438 408.222656 740.40625 C 407.40625 738.558594 406.128906 736.871094 404.480469 735.550781 C 401.242188 732.910156 396.507812 731.878906 392.777344 733.851562 C 394.546875 735.019531 396.042969 735.890625 397.417969 736.816406 C 398.78125 737.714844 400.019531 738.625 401.230469 739.589844 C 402.441406 740.585938 403.636719 741.605469 404.890625 742.734375 C 406.152344 743.878906 407.460938 745.074219 409.066406 746.421875 "/>
<path style=" stroke:none;fill-rule:nonzero;fill:rgb(18.429565%,19.219971%,21.569824%);fill-opacity:1;" d="M 397.785156 754.3125 C 398.589844 752.339844 398.507812 750.246094 398.015625 748.257812 C 397.488281 746.296875 396.4375 744.40625 394.957031 742.898438 C 391.976562 739.835938 387.28125 738.53125 383.457031 740.246094 C 385.117188 741.523438 386.5625 742.488281 387.839844 743.507812 C 389.105469 744.488281 390.195312 745.480469 391.253906 746.542969 C 392.289062 747.589844 393.308594 748.746094 394.34375 750.027344 L 397.785156 754.3125 "/>
<path style=" stroke:none;fill-rule:nonzero;fill:rgb(34.899902%,39.219666%,42.349243%);fill-opacity:1;" d="M 416.917969 491.730469 C 363.308594 473.347656 349.890625 441.71875 351.386719 439.390625 C 360.53125 458.003906 383.035156 472.125 409.746094 481.324219 C 412.535156 482.273438 415.351562 483.1875 418.222656 484.03125 C 417.84375 486.507812 417.421875 489.078125 416.917969 491.730469 "/>
<path style=" stroke:none;fill-rule:nonzero;fill:rgb(52.549744%,56.469727%,58.428955%);fill-opacity:1;" d="M 450.210938 496.695312 C 439.9375 496.695312 428.304688 495.566406 417.898438 492.070312 C 417.570312 491.960938 417.242188 491.839844 416.917969 491.730469 C 417.421875 489.078125 417.84375 486.507812 418.222656 484.03125 C 423.691406 485.664062 429.273438 487.078125 434.933594 488.316406 C 446.253906 490.765625 457.804688 492.382812 468.988281 492.96875 C 472.050781 493.132812 475.085938 493.214844 478.078125 493.214844 C 478.226562 493.214844 478.378906 493.214844 478.511719 493.214844 C 478.527344 493.242188 478.527344 493.269531 478.527344 493.296875 C 478.621094 494.03125 466.023438 496.695312 450.210938 496.695312 "/>
<path style=" stroke:none;fill-rule:nonzero;fill:rgb(44.309998%,48.239136%,50.588989%);fill-opacity:1;" d="M 372.152344 370.058594 C 372.152344 370.058594 359.265625 313.078125 385.472656 295.285156 C 385.472656 295.285156 427.039062 302.929688 438.523438 334.78125 C 438.523438 334.78125 414.398438 366.507812 372.152344 370.058594 "/>
<path style=" stroke:none;fill-rule:nonzero;fill:rgb(68.238831%,70.588684%,71.759033%);fill-opacity:1;" d="M 387.214844 363.828125 C 387.214844 363.828125 379.035156 327.636719 395.664062 316.332031 C 395.664062 316.332031 422.074219 321.1875 429.367188 341.417969 C 429.367188 341.417969 414.046875 361.570312 387.214844 363.828125 "/>
<path style=" stroke:none;fill-rule:nonzero;fill:rgb(44.309998%,48.239136%,50.588989%);fill-opacity:1;" d="M 541.226562 406.722656 C 541.226562 406.722656 576.546875 360.195312 560.085938 333.132812 C 560.085938 333.132812 519.074219 322.875 495.441406 347.121094 C 495.441406 347.121094 504.242188 385.988281 541.226562 406.722656 "/>
<path style=" stroke:none;fill-rule:nonzero;fill:rgb(68.238831%,70.588684%,71.759033%);fill-opacity:1;" d="M 530.109375 394.804688 C 530.109375 394.804688 552.546875 365.269531 542.082031 348.070312 C 542.082031 348.070312 516.039062 341.554688 501.019531 356.957031 C 501.019531 356.957031 506.609375 381.648438 530.109375 394.804688 "/>
<path style=" stroke:none;fill-rule:nonzero;fill:rgb(44.309998%,48.239136%,50.588989%);fill-opacity:1;" d="M 351.359375 401.132812 C 331.917969 446.507812 380.886719 476.585938 434.933594 488.316406 C 489.003906 500.03125 548.574219 492.859375 547.117188 443.582031 C 545.457031 387.460938 509.660156 343.839844 468.214844 334.863281 C 426.769531 325.867188 374.273438 347.675781 351.359375 401.132812 "/>
<path style=" stroke:none;fill-rule:nonzero;fill:rgb(68.238831%,70.588684%,71.759033%);fill-opacity:1;" d="M 452.59375 408.097656 C 498.3125 418.015625 530.367188 449.132812 524.164062 477.609375 C 523.605469 480.21875 522.734375 482.722656 521.578125 485.089844 C 499.507812 495.539062 466.292969 495.117188 434.933594 488.316406 C 403.242188 481.445312 373.347656 468.246094 357.917969 449.378906 C 357.863281 446.820312 358.109375 444.261719 358.667969 441.71875 C 364.832031 413.242188 406.890625 398.195312 452.59375 408.097656 "/>
<path style=" stroke:none;fill-rule:nonzero;fill:rgb(18.429565%,19.219971%,21.569824%);fill-opacity:1;" d="M 394.574219 384.03125 C 393.171875 390.519531 395.378906 396.519531 399.5 397.417969 C 403.636719 398.316406 408.128906 393.757812 409.515625 387.269531 C 410.945312 380.765625 408.738281 374.78125 404.601562 373.882812 C 400.480469 372.984375 395.988281 377.527344 394.574219 384.03125 "/>
<path style=" stroke:none;fill-rule:nonzero;fill:rgb(18.429565%,19.219971%,21.569824%);fill-opacity:1;" d="M 503.210938 407.582031 C 501.792969 414.085938 504 420.085938 508.148438 420.984375 C 512.257812 421.867188 516.761719 417.335938 518.164062 410.832031 C 519.5625 404.328125 517.359375 398.328125 513.238281 397.433594 C 509.101562 396.546875 504.609375 401.09375 503.210938 407.582031 "/>
<path style=" stroke:none;fill-rule:nonzero;fill:rgb(95.689392%,41.569519%,49.798584%);fill-opacity:1;" d="M 448.863281 472.628906 L 447.925781 476.722656 C 446.851562 481.335938 442.238281 484.21875 437.625 483.144531 C 433.011719 482.070312 430.128906 477.472656 431.203125 472.859375 L 432.101562 468.996094 C 432.101562 468.996094 436.15625 468.058594 439 464.980469 C 441.992188 461.746094 443.925781 455.867188 443.925781 455.867188 C 443.925781 455.867188 443.203125 461.429688 444.347656 465.933594 C 445.667969 470.996094 448.863281 472.628906 448.863281 472.628906 "/>
<path style=" stroke:none;fill-rule:nonzero;fill:rgb(97.24884%,61.178589%,65.879822%);fill-opacity:1;" d="M 437.9375 482.136719 C 437.925781 480.738281 438.0625 479.375 438.238281 478.015625 C 438.441406 476.65625 438.6875 475.324219 439 473.988281 C 439.300781 472.65625 439.667969 471.347656 440.101562 470.042969 C 440.523438 468.75 440.988281 467.457031 441.640625 466.191406 C 441.667969 467.609375 441.515625 468.96875 441.328125 470.328125 C 441.136719 471.675781 440.890625 473.035156 440.578125 474.355469 C 440.265625 475.691406 439.898438 476.996094 439.488281 478.316406 C 439.054688 479.59375 438.578125 480.886719 437.9375 482.136719 "/>
<path style=" stroke:none;fill-rule:nonzero;fill:rgb(18.429565%,19.219971%,21.569824%);fill-opacity:1;" d="M 433.367188 468.914062 C 436.386719 468.914062 439.109375 467.648438 441.355469 465.1875 C 444.15625 462.070312 445.246094 458.070312 445.519531 456.929688 L 451.421875 431.472656 L 448.0625 430.695312 L 442.144531 456.140625 C 441.910156 457.089844 441.027344 460.371094 438.78125 462.859375 C 436.742188 465.117188 434.332031 465.894531 431.433594 465.226562 C 425.175781 463.769531 423.828125 459.527344 424.632812 456.058594 L 426.128906 449.59375 C 426.347656 448.667969 425.761719 447.730469 424.835938 447.511719 C 423.882812 447.296875 422.972656 447.878906 422.753906 448.820312 L 421.257812 455.269531 C 420.03125 460.535156 422.46875 466.695312 430.660156 468.585938 C 431.585938 468.804688 432.484375 468.914062 433.367188 468.914062 "/>
<path style=" stroke:none;fill-rule:nonzero;fill:rgb(18.429565%,19.219971%,21.569824%);fill-opacity:1;" d="M 453.996094 473.59375 C 456.945312 473.59375 459 472.667969 460.335938 471.746094 C 463.191406 469.757812 464.238281 466.859375 464.59375 465.324219 L 466.089844 458.875 C 466.308594 457.933594 465.722656 457.007812 464.785156 456.792969 C 463.871094 456.574219 462.921875 457.144531 462.714844 458.097656 L 461.21875 464.535156 C 460.796875 466.34375 459.765625 467.921875 458.375 468.902344 C 456.523438 470.164062 454.0625 470.464844 451.070312 469.769531 C 448.171875 469.105469 446.347656 467.363281 445.519531 464.410156 C 444.59375 461.1875 445.230469 457.851562 445.464844 456.914062 L 451.355469 431.457031 L 447.980469 430.683594 L 442.074219 456.125 C 441.816406 457.28125 441.027344 461.351562 442.183594 465.375 C 443.382812 469.511719 446.171875 472.191406 450.28125 473.144531 C 451.667969 473.457031 452.890625 473.59375 453.996094 473.59375 "/>
<path style=" stroke:none;fill-rule:nonzero;fill:rgb(18.429565%,19.219971%,21.569824%);fill-opacity:1;" d="M 425.460938 426.316406 C 423.476562 434.820312 432.660156 444.207031 445.925781 447.296875 C 459.21875 450.371094 471.585938 445.976562 473.546875 437.472656 C 475.535156 428.957031 466.363281 419.566406 453.070312 416.492188 C 439.789062 413.40625 427.40625 417.800781 425.460938 426.316406 "/>
<path style=" stroke:none;fill-rule:nonzero;fill:rgb(18.429565%,19.219971%,21.569824%);fill-opacity:1;" d="M 421.136719 417.160156 C 421.636719 417.160156 422.140625 416.929688 422.496094 416.507812 C 423.082031 415.746094 422.957031 414.65625 422.210938 414.070312 C 421.71875 413.703125 374.519531 376.804688 327.34375 377.363281 C 326.40625 377.363281 325.617188 378.152344 325.644531 379.121094 C 325.660156 380.058594 326.433594 380.820312 327.371094 380.820312 L 327.386719 380.820312 C 327.765625 380.820312 328.121094 380.804688 328.488281 380.804688 C 373.988281 380.804688 419.597656 416.425781 420.058594 416.792969 C 420.371094 417.039062 420.753906 417.160156 421.136719 417.160156 "/>
<path style=" stroke:none;fill-rule:nonzero;fill:rgb(18.429565%,19.219971%,21.569824%);fill-opacity:1;" d="M 417.257812 421.691406 C 417.871094 421.691406 418.441406 421.378906 418.753906 420.832031 C 419.230469 419.988281 418.957031 418.929688 418.128906 418.464844 C 417.554688 418.125 361.988281 386.617188 313.78125 389.078125 C 312.828125 389.121094 312.09375 389.9375 312.132812 390.886719 C 312.160156 391.839844 313.019531 392.574219 313.957031 392.535156 C 361.144531 390.125 415.855469 421.144531 416.398438 421.460938 L 417.257812 421.691406 "/>
<path style=" stroke:none;fill-rule:nonzero;fill:rgb(18.429565%,19.219971%,21.569824%);fill-opacity:1;" d="M 415.636719 427.554688 C 416.265625 427.554688 416.875 427.214844 417.175781 426.601562 C 417.625 425.757812 417.269531 424.710938 416.425781 424.289062 C 415.964844 424.058594 371.105469 401.636719 318.652344 404.777344 C 317.699219 404.820312 316.964844 405.648438 317.019531 406.601562 C 317.085938 407.554688 317.917969 408.289062 318.855469 408.234375 C 370.328125 405.171875 414.425781 427.144531 414.847656 427.363281 L 415.636719 427.554688 "/>
<path style=" stroke:none;fill-rule:nonzero;fill:rgb(18.429565%,19.219971%,21.569824%);fill-opacity:1;" d="M 414.738281 433.351562 C 415.476562 433.351562 416.167969 432.859375 416.398438 432.125 C 416.6875 431.214844 416.167969 430.25 415.269531 429.960938 C 414.820312 429.828125 371.894531 416.671875 334.585938 420.480469 C 333.632812 420.5625 332.953125 421.417969 333.03125 422.371094 C 333.140625 423.324219 333.984375 424.042969 334.953125 423.921875 C 371.539062 420.195312 413.816406 433.132812 414.222656 433.269531 L 414.738281 433.351562 "/>
<path style=" stroke:none;fill-rule:nonzero;fill:rgb(18.429565%,19.219971%,21.569824%);fill-opacity:1;" d="M 578.25 456.75 C 578.792969 456.75 579.324219 456.480469 579.675781 455.988281 C 580.207031 455.214844 580.019531 454.125 579.226562 453.59375 C 540.410156 426.886719 480.59375 431.296875 479.984375 431.351562 C 479.03125 431.417969 478.324219 432.246094 478.390625 433.214844 C 478.472656 434.167969 479.273438 434.859375 480.253906 434.792969 C 480.855469 434.75 539.46875 430.453125 577.253906 456.4375 C 577.554688 456.640625 577.910156 456.75 578.25 456.75 "/>
<path style=" stroke:none;fill-rule:nonzero;fill:rgb(18.429565%,19.219971%,21.569824%);fill-opacity:1;" d="M 582.5625 473.921875 C 583.078125 473.921875 583.625 473.675781 583.949219 473.226562 C 584.535156 472.453125 584.371094 471.363281 583.609375 470.792969 C 544.898438 441.933594 481.179688 437.226562 480.539062 437.171875 C 479.589844 437.117188 478.746094 437.828125 478.691406 438.792969 C 478.609375 439.746094 479.328125 440.574219 480.296875 440.628906 C 480.921875 440.683594 543.632812 445.324219 581.527344 473.582031 C 581.839844 473.8125 582.207031 473.921875 582.5625 473.921875 "/>
<path style=" stroke:none;fill-rule:nonzero;fill:rgb(18.429565%,19.219971%,21.569824%);fill-opacity:1;" d="M 569.894531 484.519531 C 570.425781 484.519531 570.929688 484.289062 571.28125 483.824219 C 571.867188 483.0625 571.703125 481.988281 570.929688 481.417969 C 529.117188 449.675781 479.328125 443.296875 478.839844 443.242188 C 477.886719 443.132812 477.015625 443.800781 476.921875 444.75 C 476.800781 445.691406 477.464844 446.5625 478.417969 446.683594 C 478.90625 446.738281 527.78125 453.007812 568.847656 484.164062 C 569.160156 484.410156 569.527344 484.519531 569.894531 484.519531 "/>
<path style=" stroke:none;fill-rule:nonzero;fill:rgb(18.429565%,19.219971%,21.569824%);fill-opacity:1;" d="M 547.28125 488.410156 C 547.769531 488.410156 548.261719 488.207031 548.613281 487.796875 C 549.226562 487.0625 549.117188 485.960938 548.382812 485.347656 C 519.496094 461.445312 476.511719 448.492188 476.078125 448.371094 C 475.152344 448.085938 474.1875 448.613281 473.914062 449.527344 C 473.640625 450.453125 474.171875 451.417969 475.085938 451.675781 C 475.507812 451.8125 517.863281 464.585938 546.179688 488.015625 C 546.492188 488.289062 546.886719 488.410156 547.28125 488.410156 "/>
<path style=" stroke:none;fill-rule:nonzero;fill:rgb(29.40979%,8.628845%,8.239746%);fill-opacity:1;" d="M 1166.539062 316.222656 C 1166.539062 316.222656 1147.109375 255.707031 1090.316406 225.816406 C 1033.535156 195.925781 1052.964844 124.945312 1054.460938 109.992188 C 1054.460938 109.992188 1077.835938 173.613281 1109.757812 187.707031 C 1167.285156 213.109375 1257.714844 278.863281 1218.855469 399.910156 C 1218.855469 399.910156 1160.566406 362.546875 1166.539062 316.222656 "/>
<path style=" stroke:none;fill-rule:nonzero;fill:rgb(63.529968%,31.369019%,18.818665%);fill-opacity:1;" d="M 1008.171875 745.183594 C 1022.378906 745.183594 1043.710938 745.183594 1043.710938 745.183594 C 1084.953125 742.625 1071.878906 710.066406 1081.824219 689.277344 C 1094.355469 663.089844 1111.269531 613.605469 1114.683594 592.652344 C 1116.804688 579.605469 1101.308594 571.839844 1104.300781 564.4375 C 1156.304688 435.960938 1124.699219 329.472656 1038.066406 316.414062 C 996.539062 310.152344 946.644531 343.433594 937.964844 383.894531 C 928.410156 428.328125 918.136719 534.398438 1007.003906 588.382812 C 1067.945312 625.402344 1027.519531 689.808594 1027.519531 689.808594 C 989.015625 689.808594 969.488281 745.183594 1008.171875 745.183594 "/>
<path style=" stroke:none;fill-rule:nonzero;fill:rgb(100%,100%,100%);fill-opacity:1;" d="M 1059.386719 745.101562 C 1073.074219 745.101562 1079.28125 735.074219 1073.183594 722.828125 C 1073.183594 722.828125 1063.917969 688.328125 1023.820312 688.328125 C 984.292969 688.328125 974.457031 722.828125 974.457031 722.828125 C 968.347656 735.074219 974.539062 745.101562 988.238281 745.101562 L 1059.386719 745.101562 "/>
<path style=" stroke:none;fill-rule:nonzero;fill:rgb(72.158813%,63.529968%,48.629761%);fill-opacity:1;" d="M 1010.050781 690.953125 C 1008.457031 696.082031 1007.015625 700.667969 1005.925781 705.15625 C 1004.839844 709.632812 1004.144531 713.917969 1004.089844 718.082031 C 1004.007812 722.246094 1004.511719 726.324219 1005.695312 730.597656 C 1006.839844 734.898438 1008.675781 739.238281 1010.636719 744.230469 C 1006.269531 742.53125 1002.445312 739.140625 999.601562 734.488281 C 996.769531 729.863281 995.152344 723.796875 995.300781 717.835938 C 995.4375 711.851562 997.136719 706.191406 999.75 701.566406 C 1002.363281 696.980469 1005.792969 693.128906 1010.050781 690.953125 "/>
<path style=" stroke:none;fill-rule:nonzero;fill:rgb(72.158813%,63.529968%,48.629761%);fill-opacity:1;" d="M 1038.921875 690.953125 C 1040.515625 696.082031 1041.957031 700.667969 1043.03125 705.15625 C 1044.132812 709.632812 1044.816406 713.917969 1044.882812 718.082031 C 1044.964844 722.246094 1044.449219 726.324219 1043.277344 730.597656 C 1042.121094 734.898438 1040.285156 739.238281 1038.339844 744.230469 C 1042.707031 742.53125 1046.527344 739.140625 1049.371094 734.488281 C 1052.203125 729.863281 1053.820312 723.796875 1053.660156 717.835938 C 1053.550781 711.851562 1051.820312 706.191406 1049.238281 701.566406 C 1046.597656 696.980469 1043.183594 693.128906 1038.921875 690.953125 "/>
<path style=" stroke:none;fill-rule:nonzero;fill:rgb(63.529968%,31.369019%,18.818665%);fill-opacity:1;" d="M 679.726562 596.300781 C 667.628906 616.082031 657.273438 643.359375 644.417969 662.980469 C 636.550781 674.980469 618.074219 696.039062 572.097656 696.039062 C 545.785156 696.039062 542.097656 739.78125 541.007812 751.523438 C 541.007812 751.523438 624.863281 751.523438 658.433594 751.523438 C 704.367188 751.523438 729.675781 685.304688 739.691406 664.667969 C 750.425781 642.519531 783.964844 576.695312 783.964844 576.695312 C 721.199219 563.238281 698.203125 566.042969 679.726562 596.300781 "/>
<path style=" stroke:none;fill-rule:nonzero;fill:rgb(100%,100%,100%);fill-opacity:1;" d="M 606.929688 760.121094 C 620.632812 760.121094 626.835938 750.09375 620.742188 737.835938 C 620.742188 737.835938 611.488281 703.332031 571.378906 703.332031 C 531.851562 703.332031 522 737.835938 522 737.835938 C 515.890625 750.09375 522.109375 760.121094 535.796875 760.121094 L 606.929688 760.121094 "/>
<path style=" stroke:none;fill-rule:nonzero;fill:rgb(72.158813%,63.529968%,48.629761%);fill-opacity:1;" d="M 557.609375 705.972656 C 556.015625 711.089844 554.585938 715.6875 553.484375 720.164062 C 552.398438 724.652344 551.714844 728.9375 551.632812 733.089844 C 551.566406 737.265625 552.070312 741.347656 553.238281 745.605469 C 554.410156 749.902344 556.234375 754.257812 558.191406 759.238281 C 553.824219 757.535156 549.988281 754.148438 547.15625 749.507812 C 544.3125 744.871094 542.695312 738.816406 542.859375 732.84375 C 542.980469 726.855469 544.707031 721.195312 547.28125 716.585938 C 549.921875 711.984375 553.335938 708.136719 557.609375 705.972656 "/>
<path style=" stroke:none;fill-rule:nonzero;fill:rgb(72.158813%,63.529968%,48.629761%);fill-opacity:1;" d="M 586.46875 705.972656 C 588.046875 711.089844 589.5 715.6875 590.589844 720.164062 C 591.679688 724.652344 592.359375 728.9375 592.453125 733.089844 C 592.507812 737.265625 592.003906 741.347656 590.835938 745.605469 C 589.691406 749.902344 587.839844 754.257812 585.867188 759.238281 C 590.25 757.535156 594.085938 754.148438 596.917969 749.507812 C 599.761719 744.871094 601.378906 738.816406 601.214844 732.84375 C 601.09375 726.855469 599.378906 721.195312 596.78125 716.585938 C 594.15625 711.984375 590.753906 708.136719 586.46875 705.972656 "/>
<path style=" stroke:none;fill-rule:nonzero;fill:rgb(76.469421%,38.819885%,22.749329%);fill-opacity:1;" d="M 735.757812 456.695312 C 735.757812 456.695312 863.167969 450.328125 924.070312 379.351562 C 981.027344 312.984375 1032.785156 277.367188 1096.683594 284.101562 C 1222.707031 297.351562 1243.511719 412.984375 1177.382812 518.328125 C 1151.109375 560.191406 1042.882812 633.035156 963.296875 664.410156 C 909.949219 685.441406 791.800781 713.347656 723.8125 688.328125 L 735.757812 456.695312 "/>
<path style=" stroke:none;fill-rule:nonzero;fill:rgb(100%,100%,100%);fill-opacity:1;" d="M 964.414062 664.410156 C 1044 633.035156 1152.222656 560.191406 1178.511719 518.328125 C 1211.277344 466.125 1216.433594 413.933594 1204.28125 370.386719 C 1166.796875 482.136719 1045.398438 544.464844 980.117188 602.394531 C 910.613281 664.042969 680.828125 652.832031 680.828125 652.832031 C 664.691406 669.621094 718.136719 690.828125 756.359375 696.542969 C 824.824219 705.742188 918.886719 682.367188 964.414062 664.410156 "/>
<path style=" stroke:none;fill-rule:nonzero;fill:rgb(29.40979%,8.628845%,8.239746%);fill-opacity:1;" d="M 1096.683594 284.101562 C 1032.785156 277.367188 981.027344 312.984375 924.070312 379.351562 C 870.324219 441.988281 764.863281 454.300781 740.777344 456.316406 C 744.722656 462.234375 749.117188 468.316406 754.058594 474.628906 C 754.058594 474.628906 966.292969 486.574219 1035.03125 429.800781 C 1096.207031 379.269531 1150.265625 360.738281 1214.078125 399.351562 C 1219.222656 383.472656 1217.46875 365.785156 1212.121094 352.453125 C 1196.800781 314.234375 1154.429688 290.167969 1096.683594 284.101562 "/>
<path style=" stroke:none;fill-rule:nonzero;fill:rgb(76.469421%,38.819885%,22.749329%);fill-opacity:1;" d="M 840.011719 604.152344 C 827.914062 623.933594 817.574219 651.199219 804.703125 670.832031 C 796.835938 682.828125 778.359375 703.90625 732.398438 703.90625 C 706.082031 703.90625 702.378906 747.617188 701.292969 759.375 C 701.292969 759.375 785.148438 759.375 818.703125 759.375 C 864.664062 759.375 889.972656 693.144531 899.972656 672.503906 C 910.710938 650.355469 944.25 584.53125 944.25 584.53125 C 881.484375 571.089844 858.5 573.894531 840.011719 604.152344 "/>
<path style=" stroke:none;fill-rule:nonzero;fill:rgb(100%,100%,100%);fill-opacity:1;" d="M 767.214844 760.121094 C 780.917969 760.121094 787.121094 750.09375 781.027344 737.835938 C 781.027344 737.835938 771.761719 703.332031 731.648438 703.332031 C 692.136719 703.332031 682.285156 737.835938 682.285156 737.835938 C 676.175781 750.09375 682.394531 760.121094 696.082031 760.121094 L 767.214844 760.121094 "/>
<path style=" stroke:none;fill-rule:nonzero;fill:rgb(72.158813%,63.529968%,48.629761%);fill-opacity:1;" d="M 717.890625 705.972656 C 716.300781 711.089844 714.859375 715.6875 713.769531 720.164062 C 712.679688 724.652344 712 728.9375 711.933594 733.089844 C 711.835938 737.265625 712.367188 741.347656 713.539062 745.605469 C 714.679688 749.902344 716.519531 754.257812 718.476562 759.238281 C 714.097656 757.535156 710.285156 754.148438 707.441406 749.507812 C 704.597656 744.871094 702.980469 738.816406 703.144531 732.84375 C 703.25 726.855469 704.980469 721.195312 707.59375 716.585938 C 710.203125 711.984375 713.621094 708.136719 717.890625 705.972656 "/>
<path style=" stroke:none;fill-rule:nonzero;fill:rgb(72.158813%,63.529968%,48.629761%);fill-opacity:1;" d="M 746.765625 705.972656 C 748.355469 711.089844 749.800781 715.6875 750.875 720.164062 C 751.976562 724.652344 752.644531 728.9375 752.726562 733.089844 C 752.804688 737.265625 752.289062 741.347656 751.105469 745.605469 C 749.960938 749.902344 748.125 754.257812 746.179688 759.238281 C 750.546875 757.535156 754.371094 754.148438 757.214844 749.507812 C 760.03125 744.871094 761.664062 738.816406 761.5 732.84375 C 761.390625 726.855469 759.664062 721.195312 757.066406 716.585938 C 754.4375 711.984375 751.023438 708.136719 746.765625 705.972656 "/>
<path style=" stroke:none;fill-rule:nonzero;fill:rgb(74.508667%,31.759644%,16.468811%);fill-opacity:1;" d="M 635.601562 458.683594 C 635.601562 458.683594 614.6875 467.402344 593.921875 483.308594 C 570.480469 501.269531 544.996094 522.75 531.945312 540.371094 C 520.367188 555.972656 517.644531 566.4375 526.734375 581.335938 C 542.574219 607.308594 580.574219 670.761719 600.917969 704.789062 C 609.027344 718.339844 619.980469 721.742188 627.015625 712.625 C 640.566406 695.0625 659.25 664.054688 652.527344 632.925781 C 642.28125 585.621094 635.601562 458.683594 635.601562 458.683594 "/>
<path style=" stroke:none;fill-rule:nonzero;fill:rgb(84.309387%,45.489502%,27.059937%);fill-opacity:1;" d="M 823.84375 535.445312 L 785.066406 448.453125 L 753.554688 429.8125 C 753.554688 429.8125 735.144531 431.457031 730.410156 433.214844 C 718.941406 437.445312 699.851562 446.902344 687.984375 449.867188 L 688 449.988281 L 687.972656 449.867188 C 676.121094 452.984375 654.839844 453.90625 642.757812 455.730469 C 637.761719 456.480469 609.800781 470.75 602.222656 495.417969 C 595.230469 518.179688 610.15625 590.339844 610.15625 590.339844 C 606.304688 605.785156 606.808594 651.578125 636.253906 661.945312 C 683.753906 678.652344 698.082031 697.0625 733.660156 687.933594 L 748.167969 684.203125 L 748.140625 684.09375 L 748.195312 684.203125 L 762.683594 680.476562 C 798.265625 671.347656 801.9375 648.3125 835.507812 610.75 C 856.324219 587.484375 834.675781 547.132812 823.84375 535.445312 "/>
<path style=" stroke:none;fill-rule:nonzero;fill:rgb(100%,100%,100%);fill-opacity:1;" d="M 743.378906 575.007812 L 699.265625 446.058594 C 696.53125 447.0625 690.9375 448.832031 688.082031 449.675781 C 685.359375 450.464844 682.050781 451.429688 676.839844 452.03125 L 699.878906 586.804688 C 674.542969 599.675781 654.511719 622.382812 660.160156 644.394531 C 663.546875 657.550781 688.679688 682.054688 700.964844 688.449219 C 710.761719 690.898438 720.777344 691.15625 733.511719 687.890625 L 748.003906 684.164062 L 747.988281 684.054688 L 748.015625 684.164062 L 762.507812 680.433594 C 775.257812 677.15625 783.898438 672.109375 791.300781 665.238281 C 798.972656 653.714844 808.089844 614.652344 804.714844 601.511719 C 799.066406 579.566406 771.394531 572.695312 743.378906 575.007812 "/>
<path style=" stroke:none;fill-rule:nonzero;fill:rgb(29.40979%,8.628845%,8.239746%);fill-opacity:1;" d="M 787.324219 533.007812 C 789.296875 540.695312 786.945312 547.960938 782.046875 549.210938 C 777.160156 550.476562 771.597656 545.253906 769.609375 537.554688 C 767.652344 529.851562 770.003906 522.585938 774.890625 521.347656 C 779.773438 520.082031 785.339844 525.308594 787.324219 533.007812 "/>
<path style=" stroke:none;fill-rule:nonzero;fill:rgb(29.40979%,8.628845%,8.239746%);fill-opacity:1;" d="M 658.691406 566.042969 C 660.675781 573.742188 658.308594 581.007812 653.4375 582.261719 C 648.527344 583.511719 642.976562 578.285156 640.988281 570.585938 C 639.015625 562.898438 641.382812 555.632812 646.269531 554.382812 C 651.140625 553.117188 656.71875 558.355469 658.691406 566.042969 "/>
<path style=" stroke:none;fill-rule:nonzero;fill:rgb(74.508667%,31.759644%,16.468811%);fill-opacity:1;" d="M 752.480469 429.933594 C 752.480469 429.933594 753.71875 429.730469 791.679688 427.527344 C 816.445312 426.097656 846.023438 426.738281 876.121094 432.75 C 894.339844 436.382812 898.328125 460.058594 897.90625 477.71875 C 897.117188 511.511719 897.878906 587.621094 898.285156 621.46875 C 898.410156 631.835938 887.386719 637.863281 873.222656 634.492188 C 851.710938 629.359375 823.179688 617.292969 815.925781 589.035156 C 798.035156 519.375 792.0625 496.75 782.304688 458.765625 C 778.128906 442.546875 752.480469 429.933594 752.480469 429.933594 "/>
<path style=" stroke:none;fill-rule:nonzero;fill:rgb(29.40979%,8.628845%,8.239746%);fill-opacity:1;" d="M 681.605469 587.523438 C 681.46875 577.101562 696.910156 570.640625 717.019531 565.472656 C 741.351562 559.210938 753.648438 558.601562 758.167969 567.851562 C 763.488281 578.75 745.609375 604.410156 726.722656 609.253906 C 711.359375 613.199219 681.753906 600.152344 681.605469 587.523438 "/>
<path style=" stroke:none;fill-rule:nonzero;fill:rgb(29.40979%,8.628845%,8.239746%);fill-opacity:1;" d="M 813.179688 599.8125 L 812.621094 599.988281 L 812.605469 599.988281 C 808.402344 607.632812 803.542969 614.980469 798.019531 621.730469 C 795.246094 625.089844 792.304688 628.285156 789.054688 631.117188 C 785.816406 633.945312 782.277344 636.4375 778.46875 637.863281 C 777.515625 638.230469 776.550781 638.519531 775.570312 638.707031 C 774.5625 638.9375 773.542969 639.101562 772.523438 639.210938 C 770.46875 639.414062 768.414062 639.402344 766.34375 639.210938 C 762.234375 638.816406 758.195312 637.675781 754.332031 636.082031 C 750.480469 634.492188 746.792969 632.4375 743.308594 630.097656 C 741.566406 628.914062 739.867188 627.6875 738.234375 626.382812 C 737.402344 625.730469 736.613281 625.0625 735.824219 624.382812 C 735.0625 623.714844 734.246094 622.96875 733.609375 622.339844 C 733.199219 621.933594 732.683594 621.605469 732.070312 621.429688 C 731.714844 621.335938 729.253906 605.375 729.253906 605.375 L 722.96875 606.980469 C 722.96875 606.980469 727.769531 622.953125 727.5 623.835938 L 727.472656 623.917969 C 727.199219 624.777344 726.859375 625.808594 726.492188 626.777344 C 726.136719 627.742188 725.757812 628.707031 725.347656 629.675781 C 724.546875 631.605469 723.648438 633.511719 722.679688 635.375 C 720.761719 639.101562 718.519531 642.667969 715.90625 645.917969 C 713.292969 649.171875 710.300781 652.109375 706.882812 654.421875 C 705.183594 655.578125 703.375 656.585938 701.484375 657.375 C 700.53125 657.78125 699.578125 658.121094 698.585938 658.421875 L 698.21875 658.53125 L 697.851562 658.625 L 697.140625 658.804688 C 696.652344 658.910156 696.148438 658.992188 695.660156 659.0625 C 691.632812 659.621094 687.332031 659.15625 683.167969 658.246094 C 678.976562 657.304688 674.8125 655.933594 670.773438 654.328125 C 662.71875 651.0625 654.921875 646.953125 647.574219 642.300781 L 647.546875 642.285156 L 646.785156 642.421875 L 646.90625 643.199219 C 654.050781 648.355469 661.601562 652.925781 669.65625 656.734375 C 673.683594 658.625 677.847656 660.3125 682.230469 661.550781 C 686.609375 662.761719 691.222656 663.605469 696.082031 663.226562 C 696.691406 663.171875 697.292969 663.101562 697.890625 663.007812 C 698.191406 662.964844 698.503906 662.910156 698.828125 662.84375 L 699.238281 662.75 L 699.714844 662.652344 C 700.871094 662.367188 702.027344 662.027344 703.15625 661.621094 C 705.414062 660.816406 707.578125 659.78125 709.605469 658.570312 C 713.703125 656.121094 717.265625 652.980469 720.382812 649.550781 C 723.511719 646.109375 726.191406 642.339844 728.53125 638.421875 C 729.6875 636.464844 730.804688 634.449219 731.796875 632.394531 C 732.042969 631.878906 732.273438 631.347656 732.53125 630.816406 C 732.996094 631.15625 733.457031 631.511719 733.921875 631.835938 C 735.796875 633.144531 737.714844 634.382812 739.691406 635.523438 C 743.636719 637.835938 747.8125 639.835938 752.195312 641.347656 C 756.574219 642.859375 761.203125 643.863281 765.964844 644.042969 C 768.34375 644.109375 770.726562 643.972656 773.078125 643.59375 C 774.265625 643.402344 775.449219 643.144531 776.589844 642.816406 C 777.773438 642.503906 778.945312 642.070312 780.03125 641.578125 C 784.453125 639.578125 788.074219 636.613281 791.328125 633.441406 C 794.550781 630.246094 797.382812 626.777344 800.007812 623.171875 C 805.203125 615.945312 809.601562 608.285156 813.355469 600.355469 L 813.179688 599.8125 "/>
<path style=" stroke:none;fill-rule:nonzero;fill:rgb(76.469421%,38.819885%,22.749329%);fill-opacity:1;" d="M 1108.300781 760.121094 C 1122.507812 760.121094 1143.84375 760.121094 1143.84375 760.121094 C 1185.082031 757.5625 1172.023438 725.007812 1181.953125 704.21875 C 1194.484375 678.039062 1211.398438 628.558594 1214.828125 607.59375 C 1216.949219 594.558594 1201.4375 586.777344 1204.433594 579.375 C 1256.4375 450.902344 1224.828125 344.425781 1138.195312 331.351562 C 1096.667969 325.09375 1046.789062 358.386719 1038.078125 398.832031 C 1028.542969 443.269531 1018.28125 549.347656 1107.132812 603.320312 C 1168.074219 640.339844 1127.652344 704.75 1127.652344 704.75 C 1089.144531 704.75 1069.621094 760.121094 1108.300781 760.121094 "/>
<path style=" stroke:none;fill-rule:nonzero;fill:rgb(94.509888%,92.158508%,87.449646%);fill-opacity:1;" d="M 1093.757812 723.183594 C 1093.742188 723.167969 1093.714844 723.15625 1093.6875 723.128906 C 1100.640625 713.007812 1112.65625 704.75 1127.515625 704.75 C 1127.515625 704.75 1165.789062 643.742188 1111.664062 606.339844 C 1111.664062 606.3125 1111.675781 606.285156 1111.675781 606.257812 C 1165.992188 643.648438 1127.652344 704.75 1127.652344 704.75 C 1112.765625 704.75 1100.710938 713.035156 1093.757812 723.183594 "/>
<path style=" stroke:none;fill-rule:nonzero;fill:rgb(69.40918%,38.819885%,21.958923%);fill-opacity:1;" d="M 1111.664062 606.339844 C 1110.167969 605.320312 1108.617188 604.3125 1106.996094 603.320312 C 1102.140625 600.382812 1097.582031 597.265625 1093.308594 594.027344 C 1093.335938 594.015625 1093.363281 594 1093.375 593.988281 C 1097.675781 597.238281 1102.246094 600.355469 1107.132812 603.320312 C 1108.710938 604.285156 1110.222656 605.265625 1111.675781 606.257812 C 1111.675781 606.285156 1111.664062 606.3125 1111.664062 606.339844 "/>
<path style=" stroke:none;fill-rule:nonzero;fill:rgb(79.998779%,45.878601%,26.669312%);fill-opacity:1;" d="M 1052.394531 546.246094 C 1031.875 507.90625 1029.929688 464.492188 1032.992188 431.433594 C 1033.03125 431.390625 1033.085938 431.351562 1033.125 431.324219 C 1030.066406 464.371094 1031.984375 507.8125 1052.488281 546.164062 C 1052.460938 546.191406 1052.433594 546.21875 1052.394531 546.246094 "/>
<path style=" stroke:none;fill-rule:nonzero;fill:rgb(100%,100%,100%);fill-opacity:1;" d="M 1093.308594 594.027344 C 1074.953125 580.136719 1061.753906 563.714844 1052.394531 546.246094 C 1052.433594 546.21875 1052.460938 546.191406 1052.488281 546.164062 C 1061.835938 563.648438 1075.035156 580.082031 1093.375 593.988281 C 1093.363281 594 1093.335938 594.015625 1093.308594 594.027344 "/>
<path style=" stroke:none;fill-rule:nonzero;fill:rgb(38.819885%,13.328552%,11.759949%);fill-opacity:1;" d="M 1032.992188 431.433594 C 1034.160156 418.75 1036.066406 407.59375 1037.957031 398.832031 C 1042.707031 376.671875 1059.863281 356.671875 1081.199219 344.140625 C 1081.199219 344.152344 1081.183594 344.179688 1081.183594 344.207031 C 1059.90625 356.753906 1042.84375 376.726562 1038.078125 398.832031 C 1036.214844 407.566406 1034.3125 418.683594 1033.125 431.324219 C 1033.085938 431.351562 1033.03125 431.390625 1032.992188 431.433594 "/>
<path style=" stroke:none;fill-rule:nonzero;fill:rgb(79.998779%,45.878601%,26.669312%);fill-opacity:1;" d="M 1126.414062 740.421875 C 1118.070312 740.421875 1106.410156 733.457031 1093.757812 723.183594 C 1100.710938 713.035156 1112.765625 704.75 1127.652344 704.75 C 1127.652344 704.75 1165.992188 643.648438 1111.675781 606.257812 C 1110.222656 605.265625 1108.710938 604.285156 1107.132812 603.320312 C 1102.246094 600.355469 1097.675781 597.238281 1093.375 593.988281 C 1075.035156 580.082031 1061.835938 563.648438 1052.488281 546.164062 C 1031.984375 507.8125 1030.066406 464.371094 1033.125 431.324219 C 1034.3125 418.683594 1036.214844 407.566406 1038.078125 398.832031 C 1042.84375 376.726562 1059.90625 356.753906 1081.183594 344.207031 C 1053.726562 415.664062 1071.660156 532.164062 1128.441406 565.023438 C 1192.335938 602.015625 1157.066406 711.101562 1134.660156 736.882812 C 1132.535156 739.320312 1129.734375 740.421875 1126.414062 740.421875 "/>
<path style=" stroke:none;fill-rule:nonzero;fill:rgb(100%,100%,100%);fill-opacity:1;" d="M 1159.515625 760.054688 C 1173.207031 760.054688 1179.421875 750.027344 1173.328125 737.769531 C 1173.328125 737.769531 1164.046875 703.265625 1123.949219 703.265625 C 1084.421875 703.265625 1074.585938 737.769531 1074.585938 737.769531 C 1068.476562 750.027344 1074.679688 760.054688 1088.367188 760.054688 L 1159.515625 760.054688 "/>
<path style=" stroke:none;fill-rule:nonzero;fill:rgb(72.158813%,63.529968%,48.629761%);fill-opacity:1;" d="M 1110.179688 705.890625 C 1108.601562 711.019531 1107.144531 715.605469 1106.070312 720.09375 C 1104.96875 724.585938 1104.300781 728.871094 1104.21875 733.019531 C 1104.140625 737.183594 1104.640625 741.265625 1105.828125 745.550781 C 1106.96875 749.851562 1108.820312 754.191406 1110.765625 759.167969 C 1106.410156 757.46875 1102.5625 754.082031 1099.730469 749.429688 C 1096.898438 744.800781 1095.28125 738.746094 1095.429688 732.773438 C 1095.554688 726.789062 1097.28125 721.117188 1099.878906 716.503906 C 1102.507812 711.917969 1105.90625 708.066406 1110.179688 705.890625 "/>
<path style=" stroke:none;fill-rule:nonzero;fill:rgb(72.158813%,63.529968%,48.629761%);fill-opacity:1;" d="M 1139.054688 705.890625 C 1140.644531 711.019531 1142.074219 715.605469 1143.164062 720.09375 C 1144.265625 724.585938 1144.929688 728.871094 1145.011719 733.019531 C 1145.082031 737.183594 1144.589844 741.265625 1143.40625 745.550781 C 1142.265625 749.851562 1140.414062 754.191406 1138.453125 759.167969 C 1142.835938 757.46875 1146.660156 754.082031 1149.503906 749.429688 C 1152.332031 744.800781 1153.953125 738.746094 1153.789062 732.773438 C 1153.679688 726.789062 1151.953125 721.117188 1149.367188 716.503906 C 1146.742188 711.917969 1143.296875 708.066406 1139.054688 705.890625 "/>
<path style=" stroke:none;fill-rule:nonzero;fill:rgb(89.408875%,84.709167%,76.078796%);fill-opacity:1;" d="M 1090.316406 225.816406 C 1090.804688 226.019531 1103.402344 216.847656 1106.492188 210.972656 C 1113.757812 197.082031 1112.195312 189.175781 1109.757812 187.707031 C 1076.789062 167.816406 1052.964844 103.640625 1052.964844 103.640625 C 1051.46875 118.59375 1019.34375 195.269531 1090.316406 225.816406 "/>
</g>
</svg>
